<svg width="1366" height="1566" xmlns="http://www.w3.org/2000/svg"><g><path d="M-74,-108L-115,31L83,-115Z" fill="#e7365a" stroke="#e7365a"/><path d="M83,-115L-115,31L140,87Z" fill="#ed4955" stroke="#ed4955"/><path d="M83,-115L140,87L204,-107Z" fill="#f75153" stroke="#f75153"/><path d="M83,-115L204,-107L620,-114Z" fill="#fc6560" stroke="#fc6560"/><path d="M83,-115L620,-114L1063,-119Z" fill="#f8897c" stroke="#f8897c"/><path d="M204,-107L140,87L247,65Z" fill="#fa6353" stroke="#fa6353"/><path d="M204,-107L247,65L400,-75Z" fill="#fc6c5c" stroke="#fc6c5c"/><path d="M204,-107L400,-75L620,-114Z" fill="#fd786b" stroke="#fd786b"/><path d="M400,-75L247,65L397,95Z" fill="#fe8160" stroke="#fe8160"/><path d="M400,-75L397,95L584,101Z" fill="#fe946d" stroke="#fe946d"/><path d="M400,-75L584,101L620,-114Z" fill="#fd9377" stroke="#fd9377"/><path d="M620,-114L584,101L723,-31Z" fill="#f59b7a" stroke="#f59b7a"/><path d="M620,-114L723,-31L915,-111Z" fill="#e68f81" stroke="#e68f81"/><path d="M620,-114L915,-111L1063,-119Z" fill="#d28285" stroke="#d28285"/><path d="M723,-31L584,101L711,115Z" fill="#f3a879" stroke="#f3a879"/><path d="M723,-31L711,115L856,100Z" fill="#e4a37c" stroke="#e4a37c"/><path d="M723,-31L856,100L915,-111Z" fill="#d99381" stroke="#d99381"/><path d="M915,-111L856,100L1130,28Z" fill="#be8c82" stroke="#be8c82"/><path d="M915,-111L1130,28L1063,-119Z" fill="#b07b85" stroke="#b07b85"/><path d="M1063,-119L1130,28L1301,-114Z" fill="#9d648e" stroke="#9d648e"/><path d="M1301,-114L1130,28L1234,79Z" fill="#946490" stroke="#946490"/><path d="M1301,-114L1234,79L1360,-111Z" fill="#895196" stroke="#895196"/><path d="M1360,-111L1234,79L1444,21Z" fill="#814f98" stroke="#814f98"/><path d="M1360,-111L1444,21L1542,-49Z" fill="#7f38a1" stroke="#7f38a1"/><path d="M1542,-49L1444,21L1632,86Z" fill="#7f32a5" stroke="#7f32a5"/><path d="M-115,31L-139,1580L-126,1426Z" fill="#be8b8e" stroke="#be8b8e"/><path d="M-115,31L-126,1426L-79,405Z" fill="#e19080" stroke="#e19080"/><path d="M-115,31L-79,405L-90,243Z" fill="#e25956" stroke="#e25956"/><path d="M-115,31L-90,243L140,87Z" fill="#e85253" stroke="#e85253"/><path d="M140,87L-90,243L124,237Z" fill="#f0674e" stroke="#f0674e"/><path d="M140,87L124,237L185,232Z" fill="#f8734b" stroke="#f8734b"/><path d="M140,87L185,232L247,65Z" fill="#fa724e" stroke="#fa724e"/><path d="M247,65L185,232L362,199Z" fill="#fc8553" stroke="#fc8553"/><path d="M247,65L362,199L397,95Z" fill="#fe8c5b" stroke="#fe8c5b"/><path d="M397,95L362,199L538,267Z" fill="#ffa464" stroke="#ffa464"/><path d="M397,95L538,267L584,101Z" fill="#ffaa6f" stroke="#ffaa6f"/><path d="M584,101L538,267L704,229Z" fill="#f8b872" stroke="#f8b872"/><path d="M584,101L704,229L711,115Z" fill="#f4b475" stroke="#f4b475"/><path d="M711,115L704,229L856,100Z" fill="#e6b078" stroke="#e6b078"/><path d="M856,100L704,229L980,218Z" fill="#d6ae7b" stroke="#d6ae7b"/><path d="M856,100L980,218L1130,28Z" fill="#ba9a7e" stroke="#ba9a7e"/><path d="M1130,28L980,218L1091,236Z" fill="#ac967f" stroke="#ac967f"/><path d="M1130,28L1091,236L1234,79Z" fill="#9f8187" stroke="#9f8187"/><path d="M1234,79L1091,236L1202,290Z" fill="#9c8a86" stroke="#9c8a86"/><path d="M1234,79L1202,290L1373,209Z" fill="#8d788c" stroke="#8d788c"/><path d="M1234,79L1373,209L1444,21Z" fill="#815d95" stroke="#815d95"/><path d="M1444,21L1373,209L1632,86Z" fill="#80479e" stroke="#80479e"/><path d="M1632,86L1373,209L1552,299Z" fill="#804f9e" stroke="#804f9e"/><path d="M1632,86L1552,299L1552,458Z" fill="#8055a9" stroke="#8055a9"/><path d="M1632,86L1552,458L1594,792Z" fill="#806fbb" stroke="#806fbb"/><path d="M1632,86L1594,792L1638,1469Z" fill="#8080d7" stroke="#8080d7"/><path d="M-90,243L-79,405L51,358Z" fill="#e7765e" stroke="#e7765e"/><path d="M-90,243L51,358L124,237Z" fill="#ed7556" stroke="#ed7556"/><path d="M124,237L51,358L185,232Z" fill="#f58053" stroke="#f58053"/><path d="M185,232L51,358L206,453Z" fill="#f89358" stroke="#f89358"/><path d="M185,232L206,453L371,416Z" fill="#fca961" stroke="#fca961"/><path d="M185,232L371,416L362,199Z" fill="#fda25d" stroke="#fda25d"/><path d="M362,199L371,416L538,267Z" fill="#feb86c" stroke="#feb86c"/><path d="M538,267L371,416L623,463Z" fill="#ffd67e" stroke="#ffd67e"/><path d="M538,267L623,463L704,229Z" fill="#f7d07d" stroke="#f7d07d"/><path d="M704,229L623,463L706,457Z" fill="#f3e085" stroke="#f3e085"/><path d="M704,229L706,457L914,430Z" fill="#e3d887" stroke="#e3d887"/><path d="M704,229L914,430L980,218Z" fill="#d3c283" stroke="#d3c283"/><path d="M980,218L914,430L1074,396Z" fill="#bac388" stroke="#bac388"/><path d="M980,218L1074,396L1091,236Z" fill="#afaf84" stroke="#afaf84"/><path d="M1091,236L1074,396L1202,290Z" fill="#a4a88c" stroke="#a4a88c"/><path d="M1202,290L1074,396L1278,420Z" fill="#9aa996" stroke="#9aa996"/><path d="M1202,290L1278,420L1409,375Z" fill="#89959d" stroke="#89959d"/><path d="M1202,290L1409,375L1373,209Z" fill="#858299" stroke="#858299"/><path d="M1373,209L1409,375L1552,299Z" fill="#806ea1" stroke="#806ea1"/><path d="M1552,299L1409,375L1552,458Z" fill="#8074ac" stroke="#8074ac"/><path d="M-79,405L-126,1426L-70,750Z" fill="#d89288" stroke="#d89288"/><path d="M-79,405L-70,750L-41,551Z" fill="#e5947a" stroke="#e5947a"/><path d="M-79,405L-41,551L51,358Z" fill="#e88968" stroke="#e88968"/><path d="M51,358L-41,551L60,595Z" fill="#ec976f" stroke="#ec976f"/><path d="M51,358L60,595L206,453Z" fill="#f49f68" stroke="#f49f68"/><path d="M206,453L60,595L221,530Z" fill="#f9ae6d" stroke="#f9ae6d"/><path d="M206,453L221,530L371,416Z" fill="#fcb96d" stroke="#fcb96d"/><path d="M371,416L221,530L370,577Z" fill="#fec977" stroke="#fec977"/><path d="M371,416L370,577L589,588Z" fill="#ffde88" stroke="#ffde88"/><path d="M371,416L589,588L623,463Z" fill="#fee58c" stroke="#fee58c"/><path d="M623,463L589,588L706,457Z" fill="#f6ed93" stroke="#f6ed93"/><path d="M706,457L589,588L782,529Z" fill="#f1f298" stroke="#f1f298"/><path d="M706,457L782,529L914,430Z" fill="#dee494" stroke="#dee494"/><path d="M914,430L782,529L867,604Z" fill="#d5e69d" stroke="#d5e69d"/><path d="M914,430L867,604L1109,540Z" fill="#bfde9e" stroke="#bfde9e"/><path d="M914,430L1109,540L1074,396Z" fill="#b2cf95" stroke="#b2cf95"/><path d="M1074,396L1109,540L1278,420Z" fill="#9fba9d" stroke="#9fba9d"/><path d="M1278,420L1109,540L1247,556Z" fill="#96b7a8" stroke="#96b7a8"/><path d="M1278,420L1247,556L1356,532Z" fill="#8aa9ae" stroke="#8aa9ae"/><path d="M1278,420L1356,532L1409,375Z" fill="#8298a9" stroke="#8298a9"/><path d="M1409,375L1356,532L1552,458Z" fill="#808ab2" stroke="#808ab2"/><path d="M1552,458L1356,532L1553,640Z" fill="#808dc1" stroke="#808dc1"/><path d="M1552,458L1553,640L1594,792Z" fill="#8085cd" stroke="#8085cd"/><path d="M-41,551L-70,750L60,595Z" fill="#e99c7d" stroke="#e99c7d"/><path d="M60,595L-70,750L123,778Z" fill="#eea47e" stroke="#eea47e"/><path d="M60,595L123,778L221,530Z" fill="#f6b178" stroke="#f6b178"/><path d="M221,530L123,778L307,717Z" fill="#fbbf7c" stroke="#fbbf7c"/><path d="M221,530L307,717L370,577Z" fill="#fdcf81" stroke="#fdcf81"/><path d="M370,577L307,717L585,739Z" fill="#fee291" stroke="#fee291"/><path d="M370,577L585,739L589,588Z" fill="#fff09b" stroke="#fff09b"/><path d="M589,588L585,739L755,726Z" fill="#f6f8a1" stroke="#f6f8a1"/><path d="M589,588L755,726L782,529Z" fill="#eef8a1" stroke="#eef8a1"/><path d="M782,529L755,726L867,604Z" fill="#def2a4" stroke="#def2a4"/><path d="M867,604L755,726L854,800Z" fill="#daf0a9" stroke="#daf0a9"/><path d="M867,604L854,800L1022,793Z" fill="#c9e9ab" stroke="#c9e9ab"/><path d="M867,604L1022,793L1109,540Z" fill="#b8e3a8" stroke="#b8e3a8"/><path d="M1109,540L1022,793L1287,743Z" fill="#a1cdb2" stroke="#a1cdb2"/><path d="M1109,540L1287,743L1247,556Z" fill="#96c1b4" stroke="#96c1b4"/><path d="M1247,556L1287,743L1356,532Z" fill="#89b3ba" stroke="#89b3ba"/><path d="M1356,532L1287,743L1462,759Z" fill="#80a6c1" stroke="#80a6c1"/><path d="M1356,532L1462,759L1553,640Z" fill="#8097c6" stroke="#8097c6"/><path d="M1553,640L1462,759L1594,792Z" fill="#808acf" stroke="#808acf"/><path d="M-70,750L-126,1426L-74,954Z" fill="#bb8e8d" stroke="#bb8e8d"/><path d="M-70,750L-74,954L96,906Z" fill="#dd9d86" stroke="#dd9d86"/><path d="M-70,750L96,906L123,778Z" fill="#eba682" stroke="#eba682"/><path d="M123,778L96,906L239,985Z" fill="#eab481" stroke="#eab481"/><path d="M123,778L239,985L361,816Z" fill="#f2c485" stroke="#f2c485"/><path d="M123,778L361,816L307,717Z" fill="#fcc884" stroke="#fcc884"/><path d="M307,717L361,816L585,739Z" fill="#fee294" stroke="#fee294"/><path d="M361,816L239,985L375,947Z" fill="#ecd48f" stroke="#ecd48f"/><path d="M361,816L375,947L531,878Z" fill="#f2e399" stroke="#f2e399"/><path d="M361,816L531,878L585,739Z" fill="#fbed9f" stroke="#fbed9f"/><path d="M585,739L531,878L755,906Z" fill="#eff7a6" stroke="#eff7a6"/><path d="M585,739L755,906L755,726Z" fill="#eff9a8" stroke="#eff9a8"/><path d="M755,726L755,906L854,800Z" fill="#ddf3ab" stroke="#ddf3ab"/><path d="M854,800L755,906L932,866Z" fill="#cdefb0" stroke="#cdefb0"/><path d="M854,800L932,866L1022,793Z" fill="#c0e8ae" stroke="#c0e8ae"/><path d="M1022,793L932,866L1110,852Z" fill="#ace1af" stroke="#ace1af"/><path d="M1022,793L1110,852L1287,743Z" fill="#a0cdb6" stroke="#a0cdb6"/><path d="M1287,743L1110,852L1234,922Z" fill="#8fc1bc" stroke="#8fc1bc"/><path d="M1287,743L1234,922L1449,908Z" fill="#7caec5" stroke="#7caec5"/><path d="M1287,743L1449,908L1462,759Z" fill="#7da1c9" stroke="#7da1c9"/><path d="M1462,759L1449,908L1536,929Z" fill="#7593d0" stroke="#7593d0"/><path d="M1462,759L1536,929L1594,792Z" fill="#7a8bd2" stroke="#7a8bd2"/><path d="M1594,792L1536,929L1564,1144Z" fill="#6985da" stroke="#6985da"/><path d="M1594,792L1564,1144L1638,1469Z" fill="#4576de" stroke="#4576de"/><path d="M-74,954L-126,1426L-93,1201Z" fill="#9b828f" stroke="#9b828f"/><path d="M-74,954L-93,1201L-51,1057Z" fill="#b78f8c" stroke="#b78f8c"/><path d="M-74,954L-51,1057L96,906Z" fill="#d19d8a" stroke="#d19d8a"/><path d="M96,906L-51,1057L29,1127Z" fill="#c89f89" stroke="#c89f89"/><path d="M96,906L29,1127L239,985Z" fill="#d6ae85" stroke="#d6ae85"/><path d="M239,985L29,1127L282,1053Z" fill="#d1b485" stroke="#d1b485"/><path d="M239,985L282,1053L375,947Z" fill="#e0ce8f" stroke="#e0ce8f"/><path d="M375,947L282,1053L481,1123Z" fill="#d8d897" stroke="#d8d897"/><path d="M375,947L481,1123L572,1031Z" fill="#dae7a3" stroke="#dae7a3"/><path d="M375,947L572,1031L531,878Z" fill="#e9eda4" stroke="#e9eda4"/><path d="M531,878L572,1031L755,906Z" fill="#e3f6aa" stroke="#e3f6aa"/><path d="M755,906L572,1031L792,1072Z" fill="#d0f7af" stroke="#d0f7af"/><path d="M755,906L792,1072L938,1037Z" fill="#bbefb3" stroke="#bbefb3"/><path d="M755,906L938,1037L932,866Z" fill="#bdedb3" stroke="#bdedb3"/><path d="M932,866L938,1037L1110,852Z" fill="#a8e3b2" stroke="#a8e3b2"/><path d="M1110,852L938,1037L1042,1084Z" fill="#96dfb5" stroke="#96dfb5"/><path d="M1110,852L1042,1084L1234,922Z" fill="#8dcfbb" stroke="#8dcfbb"/><path d="M1234,922L1042,1084L1293,1064Z" fill="#77c2c0" stroke="#77c2c0"/><path d="M1234,922L1293,1064L1389,1052Z" fill="#67afc8" stroke="#67afc8"/><path d="M1234,922L1389,1052L1449,908Z" fill="#69a8cc" stroke="#69a8cc"/><path d="M1449,908L1389,1052L1536,929Z" fill="#6897d3" stroke="#6897d3"/><path d="M1536,929L1389,1052L1564,1144Z" fill="#598dd6" stroke="#598dd6"/><path d="M-51,1057L-93,1201L29,1127Z" fill="#ae908c" stroke="#ae908c"/><path d="M29,1127L-93,1201L60,1258Z" fill="#a48f8c" stroke="#a48f8c"/><path d="M29,1127L60,1258L211,1210Z" fill="#ac9d88" stroke="#ac9d88"/><path d="M29,1127L211,1210L282,1053Z" fill="#c0ad85" stroke="#c0ad85"/><path d="M282,1053L211,1210L366,1212Z" fill="#bdc18e" stroke="#bdc18e"/><path d="M282,1053L366,1212L481,1123Z" fill="#c5d398" stroke="#c5d398"/><path d="M481,1123L366,1212L626,1212Z" fill="#bbdfa6" stroke="#bbdfa6"/><path d="M481,1123L626,1212L572,1031Z" fill="#c3eaaa" stroke="#c3eaaa"/><path d="M572,1031L626,1212L792,1072Z" fill="#c0f2ae" stroke="#c0f2ae"/><path d="M792,1072L626,1212L744,1217Z" fill="#abecb0" stroke="#abecb0"/><path d="M792,1072L744,1217L917,1317Z" fill="#94e0b5" stroke="#94e0b5"/><path d="M792,1072L917,1317L938,1037Z" fill="#93e2b5" stroke="#93e2b5"/><path d="M938,1037L917,1317L1042,1084Z" fill="#82dbb5" stroke="#82dbb5"/><path d="M1042,1084L917,1317L1023,1299Z" fill="#6ccdb9" stroke="#6ccdb9"/><path d="M1042,1084L1023,1299L1296,1234Z" fill="#5cbfbe" stroke="#5cbfbe"/><path d="M1042,1084L1296,1234L1293,1064Z" fill="#5db8c2" stroke="#5db8c2"/><path d="M1293,1064L1296,1234L1415,1216Z" fill="#41a0cb" stroke="#41a0cb"/><path d="M1293,1064L1415,1216L1389,1052Z" fill="#4a9fcd" stroke="#4a9fcd"/><path d="M1389,1052L1415,1216L1564,1144Z" fill="#458ed4" stroke="#458ed4"/><path d="M1564,1144L1415,1216L1567,1187Z" fill="#3c80d8" stroke="#3c80d8"/><path d="M1564,1144L1567,1187L1638,1469Z" fill="#2e65e3" stroke="#2e65e3"/><path d="M-93,1201L-126,1426L60,1258Z" fill="#8f7695" stroke="#8f7695"/><path d="M60,1258L-126,1426L18,1461Z" fill="#856c9a" stroke="#856c9a"/><path d="M60,1258L18,1461L235,1448Z" fill="#8f7b96" stroke="#8f7b96"/><path d="M60,1258L235,1448L211,1210Z" fill="#a2938e" stroke="#a2938e"/><path d="M211,1210L235,1448L366,1212Z" fill="#a7a996" stroke="#a7a996"/><path d="M366,1212L235,1448L418,1427Z" fill="#9ea9a1" stroke="#9ea9a1"/><path d="M366,1212L418,1427L626,1212Z" fill="#aacbab" stroke="#aacbab"/><path d="M626,1212L418,1427L651,1390Z" fill="#9ec9b6" stroke="#9ec9b6"/><path d="M626,1212L651,1390L744,1217Z" fill="#a1dcb5" stroke="#a1dcb5"/><path d="M744,1217L651,1390L866,1408Z" fill="#8accbd" stroke="#8accbd"/><path d="M744,1217L866,1408L917,1317Z" fill="#7ecbbe" stroke="#7ecbbe"/><path d="M917,1317L866,1408L1028,1424Z" fill="#60b7c4" stroke="#60b7c4"/><path d="M917,1317L1028,1424L1023,1299Z" fill="#5bb9c2" stroke="#5bb9c2"/><path d="M1023,1299L1028,1424L1312,1397Z" fill="#42a1ca" stroke="#42a1ca"/><path d="M1023,1299L1312,1397L1296,1234Z" fill="#3e9dcc" stroke="#3e9dcc"/><path d="M1296,1234L1312,1397L1415,1216Z" fill="#2f8cd3" stroke="#2f8cd3"/><path d="M1415,1216L1312,1397L1469,1438Z" fill="#2176dc" stroke="#2176dc"/><path d="M1415,1216L1469,1438L1567,1187Z" fill="#2c74dd" stroke="#2c74dd"/><path d="M1567,1187L1469,1438L1638,1469Z" fill="#1f59e8" stroke="#1f59e8"/><path d="M-126,1426L-139,1580L24,1537Z" fill="#6a4ca6" stroke="#6a4ca6"/><path d="M-126,1426L24,1537L18,1461Z" fill="#755aa1" stroke="#755aa1"/><path d="M18,1461L24,1537L235,1448Z" fill="#7f699d" stroke="#7f699d"/><path d="M235,1448L24,1537L118,1708Z" fill="#7660a2" stroke="#7660a2"/><path d="M235,1448L118,1708L295,1633Z" fill="#7b68a5" stroke="#7b68a5"/><path d="M235,1448L295,1633L381,1612Z" fill="#7e7fac" stroke="#7e7fac"/><path d="M235,1448L381,1612L418,1427Z" fill="#8893ab" stroke="#8893ab"/><path d="M418,1427L381,1612L575,1544Z" fill="#849ebb" stroke="#849ebb"/><path d="M418,1427L575,1544L651,1390Z" fill="#8db5be" stroke="#8db5be"/><path d="M651,1390L575,1544L697,1471Z" fill="#84b8c2" stroke="#84b8c2"/><path d="M651,1390L697,1471L866,1408Z" fill="#7fbec3" stroke="#7fbec3"/><path d="M697,1471L575,1544L688,1598Z" fill="#78acc8" stroke="#78acc8"/><path d="M697,1471L688,1598L866,1408Z" fill="#72b2c8" stroke="#72b2c8"/><path d="M866,1408L688,1598L954,1622Z" fill="#5ba2cf" stroke="#5ba2cf"/><path d="M866,1408L954,1622L1028,1424Z" fill="#4ea4cb" stroke="#4ea4cb"/><path d="M1028,1424L954,1622L1101,1649Z" fill="#338fd1" stroke="#338fd1"/><path d="M1028,1424L1101,1649L1237,1554Z" fill="#2683d7" stroke="#2683d7"/><path d="M1028,1424L1237,1554L1312,1397Z" fill="#2986d6" stroke="#2986d6"/><path d="M1312,1397L1237,1554L1358,1586Z" fill="#106ae1" stroke="#106ae1"/><path d="M1312,1397L1358,1586L1469,1438Z" fill="#0d64e4" stroke="#0d64e4"/><path d="M1469,1438L1358,1586L1582,1529Z" fill="#064ded" stroke="#064ded"/><path d="M1469,1438L1582,1529L1638,1469Z" fill="#0d44f1" stroke="#0d44f1"/><path d="M1638,1469L1582,1529L1603,1783Z" fill="#002afb" stroke="#002afb"/><path d="M-139,1580L-123,1749L24,1537Z" fill="#6439aa" stroke="#6439aa"/><path d="M24,1537L-123,1749L118,1708Z" fill="#6b3da7" stroke="#6b3da7"/><path d="M295,1633L118,1708L215,1793Z" fill="#7b53a5" stroke="#7b53a5"/><path d="M295,1633L215,1793L459,1754Z" fill="#7e66af" stroke="#7e66af"/><path d="M295,1633L459,1754L381,1612Z" fill="#7f7ab5" stroke="#7f7ab5"/><path d="M381,1612L459,1754L575,1544Z" fill="#7f8cc0" stroke="#7f8cc0"/><path d="M575,1544L459,1754L551,1807Z" fill="#7e88c6" stroke="#7e88c6"/><path d="M575,1544L551,1807L688,1598Z" fill="#7996c9" stroke="#7996c9"/><path d="M688,1598L551,1807L783,1742Z" fill="#748ecb" stroke="#748ecb"/><path d="M688,1598L783,1742L954,1622Z" fill="#5e91d0" stroke="#5e91d0"/><path d="M954,1622L783,1742L898,1778Z" fill="#5181d2" stroke="#5181d2"/><path d="M954,1622L898,1778L1121,1692Z" fill="#3a7bd2" stroke="#3a7bd2"/><path d="M954,1622L1121,1692L1101,1649Z" fill="#2e7ad5" stroke="#2e7ad5"/><path d="M1101,1649L1121,1692L1237,1554Z" fill="#206edb" stroke="#206edb"/><path d="M1237,1554L1121,1692L1259,1741Z" fill="#1860df" stroke="#1860df"/><path d="M1237,1554L1259,1741L1358,1586Z" fill="#0c59e5" stroke="#0c59e5"/><path d="M1358,1586L1259,1741L1484,1777Z" fill="#003eea" stroke="#003eea"/><path d="M1358,1586L1484,1777L1582,1529Z" fill="#0038f2" stroke="#0038f2"/><path d="M1582,1529L1484,1777L1603,1783Z" fill="#001ef8" stroke="#001ef8"/><path d="M-123,1749L215,1793L118,1708Z" fill="#7137a5" stroke="#7137a5"/><path d="M215,1793L551,1807L459,1754Z" fill="#7f69b8" stroke="#7f69b8"/><path d="M551,1807L1603,1783L1484,1777Z" fill="#1748df" stroke="#1748df"/><path d="M551,1807L1484,1777L898,1778Z" fill="#3d6cd2" stroke="#3d6cd2"/><path d="M551,1807L898,1778L783,1742Z" fill="#6980ce" stroke="#6980ce"/><path d="M898,1778L1484,1777L1259,1741Z" fill="#164de0" stroke="#164de0"/><path d="M898,1778L1259,1741L1121,1692Z" fill="#2966d7" stroke="#2966d7"/></g></svg>