<?xml version="1.0" encoding="UTF-8"?>
<svg viewBox="0 0 901 447" xmlns="http://www.w3.org/2000/svg" xmlns:xlink="http://www.w3.org/1999/xlink">
 <defs>
  <linearGradient id="a">
   <stop offset="0"/>
   <stop stop-color="#fff" offset="1"/>
  </linearGradient>
  <linearGradient id="bk" x1=".99984" x2=".16986" y1=".99933" y2=".41948">
   <stop stop-color="#700d0d" offset="0"/>
   <stop stop-color="#b51616" offset="1"/>
  </linearGradient>
  <linearGradient id="bj" x1=".9997" x2=".01512" y1=".99983" y2=".27007">
   <stop stop-color="#700d0d" offset="0"/>
   <stop stop-color="#ca1919" offset="1"/>
  </linearGradient>
  <linearGradient id="bi" x1="-.00024" x2=".35984" y1="1" y2="-.18982">
   <stop stop-color="#a91414" offset="0"/>
   <stop stop-color="#ca1919" offset="1"/>
  </linearGradient>
  <linearGradient id="bh" x1=".24986" x2="-.29013" y1=".9999" y2=".20001">
   <stop stop-color="#470808" offset="0"/>
   <stop stop-color="#a91414" offset="1"/>
  </linearGradient>
  <linearGradient id="bg" x1=".51003" x2="-.06001" y1=".99983" y2=".04015">
   <stop stop-color="#700d0d" offset="0"/>
   <stop stop-color="#ca1919" offset="1"/>
  </linearGradient>
  <linearGradient id="bf" x1=".29993" x2=".43994" y1="1" y2=".06996">
   <stop stop-color="#a91414" offset="0"/>
   <stop stop-color="#cd1919" offset="1"/>
  </linearGradient>
  <linearGradient id="be" x1="1" x2=".33001" y1="1.0001" y2=".20992">
   <stop stop-color="#700d0d" offset="0"/>
   <stop stop-color="#ca1919" offset="1"/>
  </linearGradient>
  <linearGradient id="bd" x1=".67" x2=".45" y1=".71001" y2=".25">
   <stop stop-color="#470808" offset="0"/>
   <stop stop-color="#a91414" offset=".5"/>
   <stop stop-color="#cd1919" offset="1"/>
  </linearGradient>
  <linearGradient id="bc" x1=".405" x2=".59" y1=".43" y2=".57001">
   <stop stop-color="#cd1919" offset="0"/>
   <stop stop-color="#ca1919" offset=".5"/>
   <stop stop-color="#8c1111" offset="1"/>
  </linearGradient>
  <linearGradient id="bb" x1=".44501" x2=".55401" y1=".55801" y2=".44501">
   <stop stop-color="#470808" offset="0"/>
   <stop stop-color="#700d0d" offset=".65"/>
   <stop stop-color="#8c1111" offset="1"/>
  </linearGradient>
  <linearGradient id="ba" x1="1.0002" x2="-.0703" y1=".99992" y2=".71991">
   <stop stop-color="#ba1616" offset="0"/>
   <stop stop-color="#da1a1a" offset="1"/>
  </linearGradient>
  <linearGradient id="az" x1="1.0001" x2=".64514" y1=".99994" y2="-.03991">
   <stop stop-color="#570a0a" offset="0"/>
   <stop stop-color="#bd1717" offset="1"/>
  </linearGradient>
  <linearGradient id="ay" x1="1.0002" x2=".51998" y1=".75" y2="-.2502">
   <stop stop-color="#ba1616" offset="0"/>
   <stop stop-color="#da1a1a" offset="1"/>
  </linearGradient>
  <linearGradient id="ax" x1=".00013" x2=".47006" y1="1" y2="-.14995">
   <stop stop-color="#9a1212" offset="0"/>
   <stop stop-color="#da1a1a" offset="1"/>
  </linearGradient>
  <linearGradient id="aw" x1="1.0001" x2=".88006" y1=".99993" y2="-.03974">
   <stop stop-color="#570a0a" offset="0"/>
   <stop stop-color="#bd1717" offset="1"/>
  </linearGradient>
  <linearGradient id="av" x1=".44" x2=".559" y1=".55999" y2=".438">
   <stop stop-color="#9a1212" offset="0"/>
   <stop stop-color="#da1a1a" offset=".7"/>
   <stop stop-color="#ce1919" offset="1"/>
  </linearGradient>
  <linearGradient id="am" x1=".595" x2=".43" y1=".59501" y2=".37001">
   <stop stop-color="#570a0a" offset="0"/>
   <stop stop-color="#ba1616" offset=".5"/>
   <stop stop-color="#ce1919" offset="1"/>
  </linearGradient>
  <linearGradient id="an" x1=".43999" x2=".55899" y1=".55999" y2=".43799">
   <stop stop-color="#9a1212" offset="0"/>
   <stop stop-color="#da1a1a" offset=".7"/>
   <stop stop-color="#ce1919" offset="1"/>
  </linearGradient>
  <linearGradient id="ao" x1=".63001" x2=".34" y1=".59" y2=".409">
   <stop stop-color="#570a0a" offset="0"/>
   <stop stop-color="#9a1212" offset="1"/>
  </linearGradient>
  <linearGradient id="ap" x1=".99995" x2=".87995" y1=".99984" y2="-.03983">
   <stop stop-color="#570a0a" offset="0"/>
   <stop stop-color="#bd1717" offset="1"/>
  </linearGradient>
  <linearGradient id="aq" x1="-6e-5" x2=".47002" y1=".99999" y2="-.15001">
   <stop stop-color="#9a1212" offset="0"/>
   <stop stop-color="#da1a1a" offset="1"/>
  </linearGradient>
  <linearGradient id="ar" x1=".99991" x2=".51993" y1=".74991" y2="-.2503">
   <stop stop-color="#ba1616" offset="0"/>
   <stop stop-color="#da1a1a" offset="1"/>
  </linearGradient>
  <linearGradient id="as" x1=".9999" x2=".6449" y1=".99987" y2="-.03998">
   <stop stop-color="#570a0a" offset="0"/>
   <stop stop-color="#bd1717" offset="1"/>
  </linearGradient>
  <linearGradient id="at" x1=".99991" x2="-.07005" y1=".99985" y2=".71984">
   <stop stop-color="#ba1616" offset="0"/>
   <stop stop-color="#da1a1a" offset="1"/>
  </linearGradient>
  <linearGradient id="bq" x1=".63" x2=".34001" y1=".59001" y2=".40901">
   <stop stop-color="#57560a" offset="0"/>
   <stop stop-color="#999a12" offset="1"/>
  </linearGradient>
  <linearGradient id="br" x1=".595" x2=".43" y1=".59501" y2=".37001">
   <stop stop-color="#57540a" offset="0"/>
   <stop stop-color="#ba9e16" offset=".5"/>
   <stop stop-color="#b9ce19" offset="1"/>
  </linearGradient>
  <linearGradient id="ad" x1=".44" x2=".559" y1=".56" y2=".438">
   <stop stop-color="#52119a" offset="0"/>
   <stop stop-color="#7419db" offset=".7"/>
   <stop stop-color="#6e19ce" offset="1"/>
  </linearGradient>
  <linearGradient id="ae" x1=".62998" x2=".33998" y1=".59" y2=".409">
   <stop stop-color="#2e0a57" offset="0"/>
   <stop stop-color="#52119a" offset="1"/>
  </linearGradient>
  <linearGradient id="af" x1=".595" x2=".43" y1=".59499" y2=".36999">
   <stop stop-color="#2e0a57" offset="0"/>
   <stop stop-color="#6316ba" offset=".5"/>
   <stop stop-color="#6e19ce" offset="1"/>
  </linearGradient>
  <linearGradient id="ag" x1="1" x2=".88003" y1="1.0002" y2="-.04008">
   <stop stop-color="#2e0a57" offset="0"/>
   <stop stop-color="#6516bd" offset="1"/>
  </linearGradient>
  <linearGradient id="ah" x1="3e-5" x2=".47007" y1=".99993" y2="-.14995">
   <stop stop-color="#52119a" offset="0"/>
   <stop stop-color="#7419db" offset="1"/>
  </linearGradient>
  <linearGradient id="ai" x1="1.0002" x2=".52003" y1=".75" y2="-.25025">
   <stop stop-color="#6316ba" offset="0"/>
   <stop stop-color="#7419db" offset="1"/>
  </linearGradient>
  <linearGradient id="aj" x1="1.0001" x2=".64504" y1="1.0001" y2="-.04006">
   <stop stop-color="#2e0a57" offset="0"/>
   <stop stop-color="#6516bd" offset="1"/>
  </linearGradient>
  <linearGradient id="ak" x1="1.0002" x2="-.07013" y1="1.0001" y2=".72004">
   <stop stop-color="#6316ba" offset="0"/>
   <stop stop-color="#7419db" offset="1"/>
  </linearGradient>
  <linearGradient id="o" x1=".445" x2=".554" y1=".558" y2=".445">
   <stop stop-color="#08470f" offset="0"/>
   <stop stop-color="#0d7018" offset=".65"/>
   <stop stop-color="#108c1f" offset="1"/>
  </linearGradient>
  <linearGradient id="p" x1=".40499" x2=".58999" y1=".43" y2=".57">
   <stop stop-color="#18ce2e" offset="0"/>
   <stop stop-color="#19ca2d" offset=".5"/>
   <stop stop-color="#108c1f" offset="1"/>
  </linearGradient>
  <linearGradient id="q" x1=".66999" x2=".44999" y1=".70997" y2=".24998">
   <stop stop-color="#08470f" offset="0"/>
   <stop stop-color="#14a925" offset=".5"/>
   <stop stop-color="#17ce2e" offset="1"/>
  </linearGradient>
  <linearGradient id="r" x1="1" x2=".32999" y1=".99996" y2=".20993">
   <stop stop-color="#0d7018" offset="0"/>
   <stop stop-color="#19ca2d" offset="1"/>
  </linearGradient>
  <linearGradient id="s" x1=".29999" x2=".44" y1="1" y2=".06994">
   <stop stop-color="#14a925" offset="0"/>
   <stop stop-color="#18ce2e" offset="1"/>
  </linearGradient>
  <linearGradient id="t" x1=".50996" x2="-.05993" y1=".99982" y2=".04006">
   <stop stop-color="#0d7018" offset="0"/>
   <stop stop-color="#19ca2d" offset="1"/>
  </linearGradient>
  <linearGradient id="u" x1=".25003" x2="-.28992" y1="1" y2=".20004">
   <stop stop-color="#08470f" offset="0"/>
   <stop stop-color="#14a925" offset="1"/>
  </linearGradient>
  <linearGradient id="v" x1="2e-5" x2=".36002" y1="1" y2="-.18993">
   <stop stop-color="#14a925" offset="0"/>
   <stop stop-color="#19ca2d" offset="1"/>
  </linearGradient>
  <linearGradient id="w" x1=".99993" x2=".01512" y1=".99982" y2=".27">
   <stop stop-color="#0d7018" offset="0"/>
   <stop stop-color="#19ca2d" offset="1"/>
  </linearGradient>
  <linearGradient id="x" x1=".99996" x2=".17003" y1=".99923" y2=".41981">
   <stop stop-color="#0d7018" offset="0"/>
   <stop stop-color="#15b528" offset="1"/>
  </linearGradient>
  <linearGradient id="bo" x1=".99998" x2="-.49997" y1="-.99968" y2="3.4994" xlink:href="#a"/>
  <linearGradient id="bp" x1="1" x2="-.49996" y1="-1.03" y2="3.5376" xlink:href="#a"/>
  <linearGradient id="bl" x1="-.46996" x2="1.28" y1="-.17864" y2=".94957" xlink:href="#a"/>
  <linearGradient id="bn" x1="3" x2="-.24995" xlink:href="#a"/>
  <linearGradient id="bm" x1="2.9999" x2="-.24994" xlink:href="#a"/>
  <linearGradient id="c" x1="-1.9" y1="-1.9237" y2="1.0125" xlink:href="#a"/>
  <linearGradient id="d" x1="-1.9" y1="-1.9" y2="1" xlink:href="#a"/>
  <linearGradient id="e" x1="-1.9" y1="-1.9075" y2="1.004" xlink:href="#a"/>
  <linearGradient id="f" x1="-1.9" y1="-1.9096" y2="1.005" xlink:href="#a"/>
  <linearGradient id="g" x1="-1.9" y1="-1.9091" y2="1.0048" xlink:href="#a"/>
  <linearGradient id="h" x1="-1.9" y1="-1.9" y2="1" xlink:href="#a"/>
  <linearGradient id="by" x1="-1.9" y1="-1.9047" y2="1.0025" xlink:href="#a"/>
  <linearGradient id="k" x1="-.60001" x2="2" y1="1.2" y2="-1" xlink:href="#a"/>
  <linearGradient id="i" x1="-.59999" x2="2" y1="1.2" y2="-1" xlink:href="#a"/>
  <linearGradient id="ca" x1="-.6" x2="2" y1="1.2" y2="-1" xlink:href="#a"/>
  <linearGradient id="l" x1=".7" x2=".1" y1="1.4097" y2=".10069" xlink:href="#a"/>
  <linearGradient id="m" x1=".7" x2=".1" y1="1.4078" y2=".10056" xlink:href="#a"/>
  <linearGradient id="b" x1=".7" x2=".1" y1="1.4" y2=".1" xlink:href="#a"/>
  <linearGradient id="bs" x1="-.59991" x2="1.9999" y1="-.20008" y2="2.0002" xlink:href="#a"/>
  <linearGradient id="bt" x1="-.60002" x2="2" y1="-.20008" y2="2.0001" xlink:href="#a"/>
  <linearGradient id="bu" x1=".69999" x2=".10005" y1="-.40776" y2=".89949" xlink:href="#a"/>
  <linearGradient id="bv" x1=".69995" x2=".10001" y1="-.40001" y2=".89996" xlink:href="#a"/>
  <linearGradient id="bw" x1=".70004" x2=".10004" y1="-.39998" y2=".90003" xlink:href="#a"/>
  <linearGradient id="bx" x1=".69998" x2=".09998" y1="-.4" y2=".90004" xlink:href="#a"/>
  <linearGradient id="au" x1="-.6" x2="2" y1="1.2" y2="-1" xlink:href="#a"/>
  <linearGradient id="y" x1="-.47007" x2="1.28" y1="-.17869" y2=".94957" xlink:href="#a"/>
  <linearGradient id="j" x1="3" x2="-.25" xlink:href="#a"/>
  <linearGradient id="z" x1="3" x2="-.25" xlink:href="#a"/>
  <linearGradient id="aa" x1="3" x2="-.25" xlink:href="#a"/>
  <linearGradient id="ab" x1="1" x2="-.5" y1="2" y2="-2.5" xlink:href="#a"/>
  <linearGradient id="ac" x1="1" x2="-.5" y1="2.0301" y2="-2.5376" xlink:href="#a"/>
  <linearGradient id="bz" x1="1" x2="-.5" y1="2" y2="-2.5" xlink:href="#a"/>
  <radialGradient id="n" cx="9607" cy="3310" r="201" gradientUnits="userSpaceOnUse">
   <stop stop-color="#bd1717" offset="0"/>
   <stop stop-color="#bd1717" stop-opacity="0" offset="1"/>
  </radialGradient>
  <radialGradient id="al" cx="9607" cy="3310" r="201" gradientUnits="userSpaceOnUse">
   <stop stop-color="#6516bd" offset="0"/>
   <stop stop-color="#6516bd" stop-opacity="0" offset="1"/>
  </radialGradient>
 </defs>
 <path transform="matrix(.9387 -.34472 .34472 .9387 -91.298 71.305)" d="m601.22687,225.61415c-25.493,8.427-58.777,19.345-73.988,24.327l-27.56,9.063-.901,3.816c-.477,2.12-6.148,27.136-12.561,55.544s-14.31,63.335-17.543,77.592c-4.823,21.147-5.777,25.97-5.194,26.341 .424.265 2.332.477 4.293.477 3.445,0 6.36-1.06 69.642-24.698 42.188-15.794 66.939-25.334 68.476-26.394 1.378-.901 3.127-2.703 3.922-4.028 1.113-1.855 5.671-18.55 20.564-75.79 10.494-40.386 18.76199-70.967 18.815-75.525 0-2.385-.636-6.095-1.219-6.042-.212,0-21.253,6.943-46.746,15.317z" fill="#570a0a"/>
 <path transform="matrix(.9387 -.34472 .34472 .9387 -91.298 71.305)" d="m570.646,225.773c-38.213,12.879-67.151,22.684-67.363,22.843l1.961,10.865 4.823,9.54 69.112-23.161 68.847-23.267 .689-2.756c1.007-4.611.583-6.943-.742-10.176-1.219-2.385-4.187-4.558-7.473-7.208l-69.854,23.32z" fill="url(#am)"/>
 <g transform="matrix(.9387 -.34472 .34472 .9387 -96.987 79.812)">
  <path d="m380.328,154.241c-.742,1.113-1.59,2.703-1.855,3.604-.318.848-6.784,34.715-14.363,75.207-10.494,55.756-13.78,74.147-13.515,75.79 .212,1.219.954,3.392 1.643,4.929 1.219,2.491 6.307,6.996 57.982,51.516 31.111,26.818 57.558,49.237 58.671,49.873 1.113.583 2.067.901 2.12.689 .159-.583 10.229-44.838 23.479-103.509 6.148-27.242 11.66-51.516 12.243-53.954 .53-2.438 1.007-4.664 1.007-4.876 0-.265-27.984-22.843-62.116-50.138-34.185-27.348-62.593-50.032-63.07-50.456-.795-.636-1.007-.53-2.226,1.325z" fill="#9a1212"/>
  <path d="m454.26 128.7c-54.007 15.794-67.946 20.087-69.695 21.306-1.166 0.848-2.173 1.802-2.173 2.173 0 0.318 28.196 23.161 62.646 50.721l62.699 50.138 57.346-18.815c31.588-10.335 64.872-21.253 74.041-24.274s16.748-5.724 16.854-6.042c0.636-1.961-4.664-6.095-62.434-48.495-32.754-24.009-60.844-44.308-62.434-45.156-5.353-2.703-2.226-3.445-76.85 18.444z" fill="#ce1919"/>
  <path d="m390.716,147.722c-1.325.371-3.551,1.007-4.77,1.537-4.452,2.014-6.837,5.406-7.791,10.017l-.477,2.544 60.42,48.866c33.337,26.924 61.692,49.449 63.017,50.138l2.968,1.537 4.77.848 2.703-.424c5.247-.901 8.374-7.685 6.042-13.197-.742-1.802-4.452-5.777-8.321-8.904l-118.561-92.962z" fill="url(#an)"/>
  <path d="m497.511,258.121-17.278,74.359-17.808,77.38 3.922,3.286c3.445,3.074 5.088,3.604 8.904,3.657 2.597.053 6.042-.954 9.222-2.173l35.192-156.774-22.154.265z" fill="url(#ao)"/>
  <path d="m497.51 258.12 20.988 4.823-9.328-8.427-11.66 3.604z" fill="url(#ap)"/>
  <path d="m497.51 258.12 9.805-10.918 1.908 7.367-11.713 3.551z" fill="url(#aq)"/>
  <path d="m515.05 252.77-7.738-5.512 1.855 7.314 5.883-1.802z" fill="url(#ar)"/>
  <path d="m515.05 252.72 3.445 10.229-9.328-8.374 5.883-1.855z" fill="url(#as)"/>
  <path d="m511.56 242.59-4.24 4.664 7.738 5.512-3.498-10.176z" fill="url(#at)"/>
  <path transform="matrix(.053,0,0,-.053,0,430)" d="m9808 3310a201 201 0 1 0 -402 0 201 201 0 1 0 402 0" fill="url(#n)"/>
  <g transform="matrix(.053,0,0,-.053,0,430)">
   <path d="m9671 5805c-106-30-158-86-145-154 17-81 158-183 310-221 97-25 248-27 324-4 67 20 130 78 130 119 0 96-134 202-315 250-88 24-238 28-304 10z" fill="url(#c)"/>
   <path d="m8075 5333c-85-19-147-64-165-119-32-97 110-224 309-275 98-26 245-28 324-5 61 18 123 64 138 104 37 97-109 232-307 282-73 19-241 26-299 13z" fill="url(#d)"/>
   <path d="m10405 5293c-143-32-202-102-165-197 24-63 160-155 280-190 245-71 480-11 480 122 0 71-109 174-234 221-110 41-281 62-361 44z" fill="url(#e)"/>
   <path d="m8797 4800c-27-5-74-21-104-35-156-77-108-229 102-330 95-46 191-67 305-68 120-1 197 22 252 73 33 32 38 43 38 81 0 94-91 182-249 239-118 43-239 57-344 40z" fill="url(#f)"/>
   <path d="m11130 4760c-117-21-180-71-180-141 0-50 17-84 67-130 110-105 299-167 472-156 109 7 156 23 203 68 31 29 38 43 38 73 0 107-125 211-319 265-84 23-217 33-281 21z" fill="url(#g)"/>
   <path d="m9463 4236c-96-30-143-80-143-151 0-50 20-84 81-139 107-96 244-141 429-141 109 0 132 3 176 23 138 62 151 170 32 277-103 92-262 145-432 144-56 0-120-6-143-13z" fill="url(#h)"/>
  </g>
  <g transform="matrix(.053,0,0,-.053,0,430)">
   <path d="m11842 3682c-253-90-468-476-346-622 102-121 369 24 499 272 123 234 42 419-153 350z" fill="url(#k)"/>
   <path d="m10785 2491c-150-71-287-238-330-402-20-72-18-116 4-166 25-55 67-77 135-71 147 12 317 159 407 353 59 126 49 264-22 300-47 25-126 19-194-14z" fill="url(#i)"/>
   <path d="m9760 1314c-199-99-368-367-330-525 22-92 97-125 206-91 233 73 453 404 380 575-22 53-50 71-119 75-56 3-70 0-137-34z" fill="url(#i)"/>
  </g>
  <g transform="matrix(.053,0,0,-.053,0,430)">
   <path d="m7830 3088c-34-18-52-36-75-78-59-109-43-312 36-460 90-169 243-253 340-187 76 51 103 126 97 272-7 155-61 286-161 385-81 82-164 106-237 68z" fill="url(#l)"/>
   <path d="m7006 2780c-77-23-126-121-126-248 0-98 19-175 70-277 85-175 231-259 331-192 112 73 119 327 16 522-47 87-133 170-198 189-59 18-53 17-93 6z" fill="url(#m)"/>
   <path d="m8335 1630c-30-12-72-60-90-104-78-187 48-531 227-620 135-67 240-1 268 169 33 201-103 483-265 551-37 15-108 18-140 4z" fill="url(#b)"/>
   <path d="m8725 3428c-76-41-115-116-122-234-11-155 48-320 153-434 67-72 121-100 195-100 73 0 118 31 155 106 118 241-84 675-313 674-26 0-57-6-68-12z" fill="url(#b)"/>
   <path d="m7305 4528c-47-41-72-91-85-171-25-159 42-361 159-478 115-115 239-111 304 9 84 155 35 421-107 579-58 64-115 93-184 93-43 0-57-5-87-32z" fill="url(#b)"/>
  </g>
 </g>
 <path transform="translate(-19 10.012)" d="m127.492,163.746c-1.325.371-3.551,1.007-4.77,1.537-4.452,2.014-6.837,5.406-7.791,10.017l-.477,2.544 60.42,48.866c33.337,26.924 61.692,49.449 63.017,50.138l2.968,1.537 4.77.848 2.703-.424c5.247-.901 8.374-7.685 6.042-13.197-.742-1.802-4.452-5.777-8.321-8.904l-118.561-92.962z" fill="url(#av)"/>
 <path transform="translate(-19 10.012)" d="m234.29 274.14 20.988 4.823-9.328-8.427-11.66 3.604z" fill="url(#aw)"/>
 <path transform="translate(-19 10.012)" d="m234.29 274.14 9.805-10.918 1.908 7.367-11.713 3.551z" fill="url(#ax)"/>
 <path transform="translate(-19 10.012)" d="m251.83 268.79-7.738-5.512 1.855 7.314 5.883-1.802z" fill="url(#ay)"/>
 <path transform="translate(-19 10.012)" d="m251.83 268.74 3.445 10.229-9.328-8.374 5.883-1.855z" fill="url(#az)"/>
 <path transform="translate(-19 10.012)" d="m248.33 258.62-4.24 4.664 7.738 5.512-3.498-10.176z" fill="url(#ba)"/>
 <path transform="matrix(.053 0 0 -.053 -282.22 456.04)" d="m9808 3310a201 201 0 1 0 -402 0 201 201 0 1 0 402 0" fill="url(#n)"/>
 <path transform="translate(-19 10.012)" d="m193.72 15.405c-0.159 0.2649-2.226 6.731-4.611 14.469-6.519 21.2-8.957 28.938-10.6 34.185-0.795 2.597-2.332 7.6319-3.445 11.13-1.06 3.498-3.71 11.978-5.83 18.815s-7.526 24.115-11.925 38.425c-4.452 14.257-9.699 31.217-11.713 37.683s-3.657 11.978-3.657 12.243c0 0.53 8.427 6.254 85.966 58.141l44.944 29.998 1.484-2.067c0.848-1.166 1.802-2.809 2.12-3.604s10.759-35.245 23.214-76.479c25.122-83.157 24.009-78.705 21.2-84.482-0.848-1.749-2.332-3.657-3.657-4.7169-5.035-4.028-116.6-82.097-118.67-83.051-2.385-1.06-4.452-1.378-4.823-0.689v1e-4z" fill="#8c1111"/>
 <path transform="translate(-19 10.012)" d="m190.7 14.875c-3.551 0.689-109.71 23.055-111.35 23.479-2.544 0.6891-5.989 3.286-7.579 5.6711-1.961 2.9679-52.311 150.2-52.629 153.96-0.265 2.862-0.212 3.074 0.795 3.074 0.583 0 8.321-1.06 17.172-2.385s35.828-5.247 59.996-8.692c24.115-3.498 43.99-6.466 44.149-6.625 0.318-0.265 4.24-12.826 16.059-50.933 4.399-14.31 9.805-31.588 11.925-38.425s4.77-15.317 5.83-18.815c1.113-3.498 2.65-8.533 3.445-11.13 6.36-20.352 14.946-48.23 15.052-48.707 0.053-0.636-1.06-0.795-2.862-0.477z" fill="#cd1919"/>
 <path transform="translate(-19 10.012)" d="m141.301,183.309c-.159.212-17.596,2.809-38.637,5.883-56.4451,8.109-82.8391,11.978-83.1041,12.19-.106.106.053,1.166.424,2.332 1.431,4.77 1.908,5.088 65.879,43.937 38.1601,23.161 61.2151,36.888 62.7521,37.259 2.226.636 8.692.053 59.731-5.088 32.277-3.233 58.194-6.095 59.413-6.519 2.809-.954 4.982-2.597 4.293-3.233-.265-.265-22.578-15.211-49.555-33.231s-55.915-37.418-64.289-43.036c-15.847-10.653-16.377-11.024-16.907-10.494z" fill="#470808"/>
 <path transform="translate(-19 10.012)" d="m136.85 195.02 126.46 78.917c7.897-0.901 10.494-2.173 13.886-11.501l-126.25-82.415-14.098 14.999z" fill="url(#bb)"/>
 <path transform="translate(-19 10.012)" d="m131.97 176.68 19.981 4.028 51.569-161.28c-8.427-5.459-9.063-5.406-18.391-3.392l-53.159 160.64z" fill="url(#bc)"/>
 <path transform="translate(-19 10.012)" d="m20.832 192.16c-3.604 11.713-1.113 13.886 5.406 18.497l111.88-14.787-5.936-19.769-111.35 16.059z" fill="url(#bd)"/>
 <path transform="translate(-19 10.012)" d="m147.18 186.12-12.137-0.053 6.996-7.738 5.141 7.791z" fill="url(#be)"/>
 <path transform="translate(-19 10.012)" d="m132.13 176.1 2.968 9.911 6.943-7.632-9.911-2.279z" fill="url(#bf)"/>
 <path transform="translate(-19 10.012)" d="m151.95 180.71-4.823 5.353-5.088-7.685 9.911 2.332z" fill="url(#bg)"/>
 <path transform="translate(-19 10.012)" d="m138.07 195.87 9.063-9.805-12.031-0.053 2.968 9.858z" fill="url(#bh)"/>
 <path transform="translate(-19 10.012)" d="m135.1 186.01 6.943-7.632-1.325 5.883-5.618 1.749z" fill="url(#bi)"/>
 <path transform="translate(-19 10.012)" d="m147.13 186.06-5.088-7.685-1.378 5.883 6.466 1.802z" fill="url(#bj)"/>
 <path transform="translate(-19 10.012)" d="m147.13 186.06-12.031-0.053 5.618-1.802 6.413 1.855z" fill="url(#bk)"/>
 <path transform="translate(-19 10.012)" d="m233.41489,124.32015c-3.074.848-7.314,5.194-8.851,9.169-1.749,4.558-1.749,12.879.053,17.49 3.021,7.844 7.791,12.296 13.833,12.879 7.579.742 13.674-6.307 14.151-16.324 .106-2.544-.053-5.883-.424-7.579-1.484-7.155-6.731-13.833-12.19-15.423-3.18-.954-3.657-.954-6.572-.212z" fill="url(#bl)"/>
 <g transform="translate(-19 10.012)">
  <path d="m85.22689,51.39215c-7.526,4.293-14.045,13.568-15.476,22.048-.742,4.24-.265,6.89 1.696,9.063 1.325,1.537 1.802,1.696 4.346,1.696 4.929-.053 10.918-4.505 15.529-11.448 5.618-8.427 7.049-17.278 3.445-21.147-1.272-1.378-1.855-1.59-4.346-1.59-2.014,0-3.445.371-5.194,1.378z" fill="url(#bm)"/>
  <path d="m125.51 133.7c-6.466 1.961-14.628 11.077-17.437 19.398-2.226 6.731-1.961 11.448 0.901 14.628 5.247 5.83 17.861-1.961 23.691-14.628 3.18-6.837 3.71-12.985 1.537-16.695-1.59-2.65-5.141-3.763-8.692-2.703z" fill="url(#bn)"/>
 </g>
 <g transform="translate(-19 10.012)">
  <path d="m62.765 214.3c-4.717 1.113-5.194 3.498-1.59 7.367 5.247 5.618 18.709 10.6 28.673 10.6 9.646 0 10.706-4.717 2.332-10.282-8.268-5.512-22.843-9.328-29.415-7.685z" fill="url(#bo)"/>
  <path d="m193.33688,251.48415c-2.173.53-3.71,2.226-3.339,3.71 .477,1.749 5.088,5.512 9.328,7.579 6.042,2.968 12.508,4.664 18.709,4.982 6.519.371 8.692-.424 8.692-3.127 0-4.505-13.25-11.448-25.122-13.091-4.611-.636-5.618-.636-8.268-.053z" fill="url(#bp)"/>
 </g>
 <path transform="translate(507 -109.99)" d="m346.28 235.61c-25.493 8.427-58.777 19.345-73.988 24.327l-27.56 9.063-0.901 3.816c-0.477 2.12-6.148 27.136-12.561 55.544s-14.31 63.335-17.543 77.592c-4.823 21.147-5.777 25.97-5.194 26.341 0.424 0.265 2.332 0.477 4.293 0.477 3.445 0 6.36-1.06 69.642-24.698 42.188-15.794 66.939-25.334 68.476-26.394 1.378-0.901 3.127-2.703 3.922-4.028 1.113-1.855 5.671-18.55 20.564-75.79 10.494-40.386 18.762-70.967 18.815-75.525 0-2.385-0.636-6.095-1.219-6.042-0.212 0-21.253 6.943-46.746 15.317z" fill="#57570a"/>
 <path transform="translate(507 -109.99)" d="m117.104,170.265c-.742,1.113-1.59,2.703-1.855,3.604-.318.848-6.784,34.715-14.363,75.207-10.4943,55.756-13.7803,74.147-13.5153,75.79 .212,1.219.954,3.392 1.643,4.929 1.219,2.491 6.307,6.996 57.9823,51.516 31.111,26.818 57.558,49.237 58.671,49.873 1.113.583 2.067.901 2.12.689 .159-.583 10.229-44.838 23.479-103.509 6.148-27.242 11.66-51.516 12.243-53.954 .53-2.438 1.007-4.664 1.007-4.876 0-.265-27.984-22.843-62.116-50.138-34.185-27.348-62.593-50.032-63.07-50.456-.795-.636-1.007-.53-2.226,1.325z" fill="#9a9a12"/>
 <path transform="translate(507 -109.99)" d="m191.039,144.719c-54.007,15.794-67.946,20.087-69.695,21.306-1.166.848-2.173,1.802-2.173,2.173 0,.318 28.196,23.161 62.646,50.721l62.699,50.138 57.346-18.815c31.588-10.335 64.872-21.253 74.041-24.274s16.748-5.724 16.854-6.042c.636-1.961-4.664-6.095-62.434-48.495-32.754-24.009-60.844-44.308-62.434-45.156-5.353-2.703-2.226-3.445-76.85,18.444z" fill="#cece19"/>
 <path transform="translate(507 -109.99)" d="m234.287,274.145-17.278,74.359-17.808,77.38 3.922,3.286c3.445,3.074 5.088,3.604 8.904,3.657 2.597.053 6.042-.954 9.222-2.173l35.192-156.774-22.154.265z" fill="url(#bq)"/>
 <path transform="translate(507 -109.99)" d="m315.695,235.773c-38.213,12.879-67.151,22.684-67.363,22.843l1.961,10.865 4.823,9.54 69.112-23.161 68.847-23.267 .689-2.756c1.007-4.611.583-6.943-.742-10.176-1.219-2.385-4.187-4.558-7.473-7.208l-69.854,23.32z" fill="url(#br)"/>
 <g transform="matrix(.053 0 0 -.053 243.78 336.04)">
  <path d="m9671 5805c-106-30-158-86-145-154 17-81 158-183 310-221 97-25 248-27 324-4 67 20 130 78 130 119 0 96-134 202-315 250-88 24-238 28-304 10z" fill="url(#c)"/>
  <path d="m8075 5333c-85-19-147-64-165-119-32-97 110-224 309-275 98-26 245-28 324-5 61 18 123 64 138 104 37 97-109 232-307 282-73 19-241 26-299 13z" fill="url(#d)"/>
  <path d="m10405 5293c-143-32-202-102-165-197 24-63 160-155 280-190 245-71 480-11 480 122 0 71-109 174-234 221-110 41-281 62-361 44z" fill="url(#e)"/>
  <path d="m8797 4800c-27-5-74-21-104-35-156-77-108-229 102-330 95-46 191-67 305-68 120-1 197 22 252 73 33 32 38 43 38 81 0 94-91 182-249 239-118 43-239 57-344 40z" fill="url(#f)"/>
  <path d="m11130 4760c-117-21-180-71-180-141 0-50 17-84 67-130 110-105 299-167 472-156 109 7 156 23 203 68 31 29 38 43 38 73 0 107-125 211-319 265-84 23-217 33-281 21z" fill="url(#g)"/>
  <path d="m9463 4236c-96-30-143-80-143-151 0-50 20-84 81-139 107-96 244-141 429-141 109 0 132 3 176 23 138 62 151 170 32 277-103 92-262 145-432 144-56 0-120-6-143-13z" fill="url(#h)"/>
 </g>
 <path transform="translate(507 -109.99)" d="m364.4 250.88c-13.409 4.77-24.804 25.228-18.338 32.966 5.406 6.413 19.557-1.272 26.447-14.416 6.519-12.402 2.226-22.207-8.109-18.55z" fill="url(#bs)"/>
 <path transform="translate(507 -109.99)" d="m254.06 376.38c-10.547 5.247-19.504 19.451-17.49 27.825 1.166 4.876 5.141 6.625 10.918 4.823 12.349-3.869 24.009-21.412 20.14-30.475-1.166-2.809-2.65-3.763-6.307-3.975-2.968-0.159-3.71 0-7.261 1.802z" fill="url(#bt)"/>
 <g transform="translate(507 -109.99)">
  <path d="m108.09 298.68c-4.081 1.219-6.678 6.413-6.678 13.144 0 5.194 1.007 9.275 3.71 14.681 4.505 9.275 12.243 13.727 17.543 10.176 5.936-3.869 6.307-17.331 0.848-27.666-2.491-4.611-7.049-9.01-10.494-10.017-3.127-0.954-2.809-0.901-4.929-0.318z" fill="url(#bu)"/>
  <path d="m178.53 359.63c-1.59 0.636-3.816 3.18-4.77 5.512-4.134 9.911 2.544 28.143 12.031 32.86 7.155 3.551 12.72 0.053 14.204-8.957 1.749-10.653-5.459-25.599-14.045-29.203-1.961-0.795-5.724-0.954-7.42-0.212z" fill="url(#bv)"/>
  <path d="m199.2 264.34c-4.028 2.173-6.095 6.148-6.466 12.402-0.583 8.215 2.544 16.96 8.109 23.002 3.551 3.816 6.413 5.3 10.335 5.3 3.869 0 6.254-1.643 8.215-5.618 6.254-12.773-4.452-35.775-16.589-35.722-1.378 0-3.021 0.318-3.604 0.636z" fill="url(#bw)"/>
  <path d="m123.94 206.04c-2.491 2.173-3.816 4.823-4.505 9.063-1.325 8.427 2.226 19.133 8.427 25.334 6.095 6.095 12.667 5.883 16.112-0.477 4.452-8.215 1.855-22.313-5.671-30.687-3.074-3.392-6.095-4.929-9.752-4.929-2.279 0-3.021 0.265-4.611 1.696z" fill="url(#bx)"/>
 </g>
 <path transform="matrix(.7841 .11466 -.11466 .7841 320.71 10.394)" d="m534.57 80.909c-0.21541 0.359-3.0157 9.119-6.2469 19.602-8.8318 28.721-12.135 39.204-14.361 46.313-1.077 3.5183-3.1593 10.34-4.6672 15.079-1.4361 4.739-5.0262 16.228-7.8983 25.49s-10.196 32.67-16.156 52.057c-6.0315 19.315-13.14 42.292-15.868 51.052s-4.9544 16.228-4.9544 16.586c0 0.718 11.417 8.4728 116.46 78.768l60.889 40.64 2.0105-2.8003c1.1488-1.5797 2.4413-3.8056 2.8721-4.8826s14.576-47.749 31.45-103.61c34.035-112.66 32.527-106.63 28.721-114.45-1.1488-2.3695-3.1593-4.9544-4.9544-6.3905-6.8213-5.457-157.97-111.22-160.77-112.52-3.2311-1.4361-6.0315-1.8669-6.5341-0.9334z" fill="#118c1f"/>
 <path transform="matrix(.7841 .11466 -.11466 .7841 320.71 10.394)" d="m530.48 80.191c-4.811 0.9335-148.63 31.235-150.86 31.809-3.446 0.934-8.113 4.452-10.267 7.683-2.657 4.021-70.87 203.49-71.301 208.59-0.359 3.877-0.287 4.165 1.077 4.165 0.79 0 11.273-1.437 23.264-3.232s48.539-7.108 81.281-11.775c32.671-4.739 59.597-8.76 59.812-8.976 0.431-0.359 5.745-17.376 21.757-69.002 5.959-19.387 13.283-42.795 16.155-52.058s6.463-20.751 7.899-25.49c1.508-4.739 3.59-11.56 4.667-15.078 8.616-27.573 20.248-65.341 20.392-65.987 0.072-0.8617-1.436-1.0771-3.877-0.6463z" fill="#18ce2e"/>
 <path transform="matrix(.7841 .11466 -.11466 .7841 320.71 10.394)" d="m463.55 308.38c-0.2154 0.2872-23.839 3.8055-52.344 7.9701-76.47 10.986-112.23 16.228-112.59 16.515-0.14361 0.1436 0.0718 1.5797 0.57442 3.1593 1.9387 6.4623 2.5849 6.8931 89.251 59.525 51.698 31.378 82.933 49.975 85.015 50.478 3.0157 0.8617 11.776 0.0718 80.922-6.8931 43.728-4.38 78.84-8.2573 80.491-8.8317 3.8056-1.2925 6.7495-3.5184 5.816-4.38-0.35901-0.359-30.588-20.608-67.136-45.021s-75.752-50.693-87.097-58.304c-21.469-14.432-22.187-14.935-22.905-14.217z" fill="#08470f"/>
 <path transform="matrix(.7841 .11466 -.11466 .7841 320.71 10.394)" d="m457.52 324.25 171.32 106.91c10.699-1.2207 14.217-2.9439 18.812-15.581l-171.03-111.65-19.1 20.32z" fill="url(#o)"/>
 <path transform="matrix(.7841 .11466 -.11466 .7841 320.71 10.394)" d="m450.92 299.41 27.07 5.457 69.864-218.5c-11.417-7.3957-12.278-7.3239-24.916-4.5954l-72.018 217.64z" fill="url(#p)"/>
 <path transform="matrix(.7841 .11466 -.11466 .7841 320.71 10.394)" d="m300.35 320.37c-4.8826 15.868-1.5079 18.812 7.3239 25.059l151.58-20.033-8.0419-26.783-150.86 21.756z" fill="url(#q)"/>
 <path transform="matrix(.7841 .11466 -.11466 .7841 320.71 10.394)" d="m471.52 312.19-16.443-0.0718 9.478-10.483 6.9649 10.555z" fill="url(#r)"/>
 <path transform="matrix(.7841 .11466 -.11466 .7841 320.71 10.394)" d="m451.13 298.62 4.021 13.427 9.4062-10.34-13.427-3.0876z" fill="url(#s)"/>
 <path transform="matrix(.7841 .11466 -.11466 .7841 320.71 10.394)" d="m477.99 304.86-6.5341 7.2521-6.8931-10.411 13.427 3.1593z" fill="url(#t)"/>
 <path transform="matrix(.7841 .11466 -.11466 .7841 320.71 10.394)" d="m459.17 325.4 12.278-13.284-16.299-0.0718 4.021 13.355z" fill="url(#u)"/>
 <path transform="matrix(.7841 .11466 -.11466 .7841 320.71 10.394)" d="m455.09 312.04 9.4062-10.34-1.7951 7.9701-7.6111 2.3695z" fill="url(#v)"/>
 <path transform="matrix(.7841 .11466 -.11466 .7841 320.71 10.394)" d="m471.45 312.12-6.8931-10.411-1.8669 7.9701 8.76 2.4413z" fill="url(#w)"/>
 <path transform="matrix(.7841 .11466 -.11466 .7841 320.71 10.394)" d="m471.45 312.12-16.299-0.0718 7.6111-2.4413 8.6882 2.5131z" fill="url(#x)"/>
 <path transform="matrix(.7841 .11466 -.11466 .7841 320.71 10.394)" d="m588.35 228.46c-4.1646 1.1488-9.9088 7.0367-11.991 12.422-2.3695 6.175-2.3695 17.448 0.0718 23.695 4.0928 10.627 10.555 16.658 18.741 17.448 10.268 1.0053 18.525-8.5445 19.171-22.115 0.1436-3.4466-0.0718-7.9701-0.57443-10.268-2.0105-9.6935-9.119-18.741-16.515-20.895-4.3082-1.2925-4.9544-1.2925-8.9036-0.2872z" fill="url(#y)"/>
 <g transform="matrix(.0563 .00823 .00823 -.0563 466.48 546.37)">
  <path d="m2864 7432c-212-74-403-412-330-587 30-71 112-87 212-41 68 31 182 143 232 227 103 175 107 363 8 404-45 19-59 18-122-3z" fill="url(#j)"/>
  <path d="m1500 7144c-142-81-265-256-292-416-14-80-5-130 32-171 25-29 34-32 82-32 93 1 206 85 293 216 106 159 133 326 65 399-24 26-35 30-82 30-38 0-65-7-98-26z" fill="url(#j)"/>
  <path d="m2260 5591c-122-37-276-209-329-366-42-127-37-216 17-276 99-110 337 37 447 276 60 129 70 245 29 315-30 50-97 71-164 51z" fill="url(#z)"/>
  <path d="m925 5368c-161-58-321-289-333-479-3-59 0-84 13-113 88-186 420 57 491 360 40 173-39 279-171 232z" fill="url(#aa)"/>
 </g>
 <g transform="matrix(.0563 .00823 .00823 -.0563 466.48 546.37)">
  <path d="m2246 4259c-89-21-98-66-30-139 99-106 353-200 541-200 182 0 202 89 44 194-156 104-431 176-555 145z" fill="url(#ab)"/>
  <path d="m2370 3180c-41-10-70-42-63-70 9-33 96-104 176-143 114-56 236-88 353-94 123-7 164 8 164 59 0 85-250 216-474 247-87 12-106 12-156 1z" fill="url(#ac)"/>
 </g>
 <path transform="matrix(-.77904 -.14507 -.14507 .77904 564.56 -229.78)" d="m368.47 606.14c-34.537 11.417-79.63 26.208-100.24 32.958l-37.338 12.278-1.2206 5.1698c-0.64623 2.8721-8.3292 36.763-17.017 75.25s-19.387 85.805-23.767 105.12c-6.5341 28.649-7.8265 35.184-7.0367 35.686 0.57442 0.359 3.1593 0.6462 5.816 0.6462 4.6672 0 8.6164-1.436 94.349-33.46 57.155-21.397 90.687-34.322 92.77-35.758 1.8669-1.2207 4.2364-3.662 5.3134-5.457 1.5079-2.5132 7.6829-25.131 27.86-102.68 14.217-54.714 25.418-96.144 25.49-102.32 0-3.2311-0.8617-8.2573-1.6515-8.1855-0.2872 0-28.793 9.4062-63.33 20.751z" fill="#2e0a57"/>
 <path transform="matrix(-.77904 -.14507 -.14507 .77904 564.56 -229.78)" d="m57.998 517.6c-1.0052 1.5078-2.1541 3.6619-2.5131 4.8826-0.43081 1.1488-9.1908 47.031-19.459 101.89-14.217 75.537-18.669 100.45-18.31 102.68 0.28721 1.6515 1.2924 4.5954 2.2259 6.6777 1.6515 3.3747 8.5446 9.478 78.553 69.793 42.148 36.332 77.978 66.705 79.486 67.567 1.5079 0.7899 2.8003 1.2207 2.8721 0.9335 0.2154-0.7899 13.858-60.745 31.809-140.23 8.3292-36.907 15.797-69.793 16.587-73.095 0.71803-3.3029 1.3643-6.3187 1.3643-6.6059 0-0.359-37.912-30.947-84.153-67.926-46.313-37.05-84.799-67.782-85.446-68.356-1.077-0.8616-1.3643-0.718-3.0157 1.7951z" fill="#52119a"/>
 <path transform="matrix(-.77904 -.14507 -.14507 .77904 564.56 -229.78)" d="m158.16 483c-73.167 21.397-92.052 27.213-94.421 28.865-1.5797 1.1489-2.9439 2.4413-2.9439 2.944 0 0.4308 38.199 31.378 84.871 68.716l84.943 67.926 77.691-25.49c42.795-14.002 87.887-28.793 100.31-32.886s22.69-7.7547 22.833-8.1855c0.8616-2.6568-6.3187-8.2574-84.584-65.7-44.374-32.527-82.43-60.027-84.584-61.176-7.2521-3.6619-3.0157-4.6672-104.11 24.987z" fill="#6f19ce"/>
 <path transform="matrix(-.77904 -.14507 -.14507 .77904 564.56 -229.78)" d="m72.071 508.77c-1.7951 0.5026-4.8108 1.3643-6.4623 2.0823-6.0315 2.7285-9.2626 7.3239-10.555 13.571l-0.64623 3.4465 81.855 66.202c45.164 36.476 83.579 66.992 85.374 67.926l4.021 2.0823 6.4623 1.1489 3.662-0.5745c7.1085-1.2206 11.345-10.411 8.1855-17.879-1.0052-2.4413-6.0314-7.8265-11.273-12.063l-160.62-125.94z" fill="url(#ad)"/>
 <path transform="matrix(-.77904 -.14507 -.14507 .77904 564.56 -229.78)" d="m216.75 658.34-23.408 100.74-24.126 104.83 5.3134 4.4518c4.6672 4.1646 6.8931 4.8826 12.063 4.9544 3.5184 0.0718 8.1856-1.2924 12.494-2.9439l47.677-212.39-30.014 0.359z" fill="url(#ae)"/>
 <path transform="matrix(-.77904 -.14507 -.14507 .77904 564.56 -229.78)" d="m327.04 606.35c-51.77 17.448-90.974 30.732-91.262 30.947l2.6567 14.72 6.5341 12.925 93.631-31.378 93.272-31.522 0.9334-3.7338c1.3643-6.2468 0.7899-9.4062-1.0052-13.786-1.6515-3.2311-5.6724-6.175-10.124-9.7652l-94.636 31.593z" fill="url(#af)"/>
 <path transform="matrix(-.77904 -.14507 -.14507 .77904 564.56 -229.78)" d="m216.75 658.34 28.434 6.5341-12.637-11.417-15.797 4.8826z" fill="url(#ag)"/>
 <path transform="matrix(-.77904 -.14507 -.14507 .77904 564.56 -229.78)" d="m216.75 658.34 13.284-14.792 2.5849 9.9807-15.868 4.8108z" fill="url(#ah)"/>
 <path transform="matrix(-.77904 -.14507 -.14507 .77904 564.56 -229.78)" d="m240.52 651.09-10.483-7.4675 2.5131 9.9088 7.9701-2.4413z" fill="url(#ai)"/>
 <path transform="matrix(-.77904 -.14507 -.14507 .77904 564.56 -229.78)" d="m240.52 651.01 4.6672 13.858-12.637-11.345 7.9701-2.5131z" fill="url(#aj)"/>
 <path transform="matrix(-.77904 -.14507 -.14507 .77904 564.56 -229.78)" d="m235.78 637.3-5.7442 6.3187 10.483 7.4675-4.739-13.786z" fill="url(#ak)"/>
 <path transform="matrix(-.05594 -.01042 .01042 -.05594 791.5 530.84)" d="m9808 3310a201 201 0 1 0 -402 0 201 201 0 1 0 402 0" fill="url(#al)"/>
 <g transform="matrix(-.05594 -.01042 .01042 -.05594 791.5 530.84)">
  <path d="m9671 5805c-106-30-158-86-145-154 17-81 158-183 310-221 97-25 248-27 324-4 67 20 130 78 130 119 0 96-134 202-315 250-88 24-238 28-304 10z" fill="url(#c)"/>
  <path d="m8075 5333c-85-19-147-64-165-119-32-97 110-224 309-275 98-26 245-28 324-5 61 18 123 64 138 104 37 97-109 232-307 282-73 19-241 26-299 13z" fill="url(#d)"/>
  <path d="m10405 5293c-143-32-202-102-165-197 24-63 160-155 280-190 245-71 480-11 480 122 0 71-109 174-234 221-110 41-281 62-361 44z" fill="url(#e)"/>
  <path d="m8797 4800c-27-5-74-21-104-35-156-77-108-229 102-330 95-46 191-67 305-68 120-1 197 22 252 73 33 32 38 43 38 81 0 94-91 182-249 239-118 43-239 57-344 40z" fill="url(#f)"/>
  <path d="m11130 4760c-117-21-180-71-180-141 0-50 17-84 67-130 110-105 299-167 472-156 109 7 156 23 203 68 31 29 38 43 38 73 0 107-125 211-319 265-84 23-217 33-281 21z" fill="url(#g)"/>
  <path d="m9463 4236c-96-30-143-80-143-151 0-50 20-84 81-139 107-96 244-141 429-141 109 0 132 3 176 23 138 62 151 170 32 277-103 92-262 145-432 144-56 0-120-6-143-13z" fill="url(#h)"/>
 </g>
 <g transform="matrix(-.05594 -.01042 .01042 -.05594 791.5 530.84)">
  <path d="m11842 3682c-253-90-468-476-346-622 102-121 369 24 499 272 123 234 42 419-153 350z" fill="url(#k)"/>
  <path d="m10785 2491c-150-71-287-238-330-402-20-72-18-116 4-166 25-55 67-77 135-71 147 12 317 159 407 353 59 126 49 264-22 300-47 25-126 19-194-14z" fill="url(#au)"/>
  <path d="m9760 1314c-199-99-368-367-330-525 22-92 97-125 206-91 233 73 453 404 380 575-22 53-50 71-119 75-56 3-70 0-137-34z" fill="url(#i)"/>
 </g>
 <g transform="matrix(-.05594 -.01042 .01042 -.05594 791.5 530.84)">
  <path d="m7830 3088c-34-18-52-36-75-78-59-109-43-312 36-460 90-169 243-253 340-187 76 51 103 126 97 272-7 155-61 286-161 385-81 82-164 106-237 68z" fill="url(#l)"/>
  <path d="m7006 2780c-77-23-126-121-126-248 0-98 19-175 70-277 85-175 231-259 331-192 112 73 119 327 16 522-47 87-133 170-198 189-59 18-53 17-93 6z" fill="url(#m)"/>
  <path d="m8335 1630c-30-12-72-60-90-104-78-187 48-531 227-620 135-67 240-1 268 169 33 201-103 483-265 551-37 15-108 18-140 4z" fill="url(#b)"/>
  <path d="m8725 3428c-76-41-115-116-122-234-11-155 48-320 153-434 67-72 121-100 195-100 73 0 118 31 155 106 118 241-84 675-313 674-26 0-57-6-68-12z" fill="url(#b)"/>
  <path d="m7305 4528c-47-41-72-91-85-171-25-159 42-361 159-478 115-115 239-111 304 9 84 155 35 421-107 579-58 64-115 93-184 93-43 0-57-5-87-32z" fill="url(#b)"/>
 </g>
</svg>
